<svg xmlns="http://www.w3.org/2000/svg" fill="none" viewBox="0 0 96 96" id="Aws--Streamline-Svg-Logos"><desc>Aws Streamline Icon: https://streamlinehq.com</desc><path fill="#252f3e" d="M27.4897 40.3091c0 1.1567 0.125 2.0946 0.3439 2.7824 0.2501 0.6878 0.5627 1.4381 1.0004 2.251 0.1563 0.2501 0.2188 0.5002 0.2188 0.719 0 0.3127 -0.1875 0.6253 -0.594 0.9379l-1.9696 1.3131c-0.2813 0.1876 -0.5627 0.2814 -0.8128 0.2814 -0.3126 0 -0.6253 -0.1564 -0.9379 -0.4377 -0.4377 -0.469 -0.8129 -0.9692 -1.1255 -1.4694 -0.3126 -0.5315 -0.6253 -1.1255 -0.9692 -1.8446 -2.4385 2.8763 -5.5023 4.3144 -9.1914 4.3144 -2.6261 0 -4.72077 -0.7503 -6.25268 -2.251 -1.5319 -1.5006 -2.31349 -3.5015 -2.31349 -6.0025 0 -2.6574 0.9379 -4.8146 2.84497 -6.4403 1.90707 -1.6257 4.4394 -2.4386 7.6595 -2.4386 1.063 0 2.1572 0.0938 3.314 0.2502 1.1567 0.1563 2.3447 0.4064 3.5953 0.6878v-2.2823c0 -2.376 -0.5003 -4.033 -1.4694 -5.0021 -1.0005 -0.9692 -2.6887 -1.4381 -5.096 -1.4381 -1.0942 0 -2.2197 0.125 -3.3764 0.4064 -1.1568 0.2814 -2.2822 0.6253 -3.37646 1.0629 -0.50022 0.2189 -0.87538 0.3439 -1.09422 0.4065 -0.21885 0.0625 -0.37516 0.0938 -0.50022 0.0938 -0.43768 0 -0.65653 -0.3127 -0.65653 -0.9692v-1.5319c0 -0.5002 0.06253 -0.8754 0.21885 -1.0942 0.15631 -0.2189 0.43768 -0.4377 0.87537 -0.6566 1.09422 -0.5627 2.40731 -1.0317 3.93921 -1.4068 1.5319 -0.4064 3.1576 -0.594 4.8771 -0.594 3.7203 0 6.4402 0.8441 8.191 2.5323 1.7195 1.6882 2.5949 4.2518 2.5949 7.6908v10.1294h0.0625Zm-12.693 4.752c1.0317 0 2.0947 -0.1876 3.2202 -0.5628 1.1254 -0.3751 2.1259 -1.0629 2.97 -2.0008 0.5002 -0.594 0.8754 -1.2505 1.0629 -2.0009 0.1876 -0.7503 0.3127 -1.6569 0.3127 -2.7199v-1.313c-0.9067 -0.2189 -1.8758 -0.4065 -2.8763 -0.5315 -1.0004 -0.1251 -1.9696 -0.1876 -2.9387 -0.1876 -2.0947 0 -3.6266 0.4064 -4.6583 1.2505 -1.0317 0.8441 -1.5319 2.0322 -1.5319 3.5953 0 1.4694 0.3752 2.5636 1.1568 3.3139 0.7503 0.7816 1.8445 1.1568 3.2826 1.1568Zm25.1046 3.3764c-0.5628 0 -0.938 -0.0938 -1.1881 -0.3126 -0.2501 -0.1876 -0.4689 -0.6253 -0.6565 -1.2193L30.7098 22.739c-0.1876 -0.6253 -0.2814 -1.0317 -0.2814 -1.2505 0 -0.5002 0.2501 -0.7816 0.7504 -0.7816h3.0638c0.594 0 1.0004 0.0938 1.2192 0.3126 0.2502 0.1876 0.4377 0.6253 0.6253 1.2193l5.2523 20.6964 4.8771 -20.6964c0.1563 -0.6253 0.3439 -1.0317 0.594 -1.2193s0.6878 -0.3126 1.2505 -0.3126h2.5011c0.594 0 1.0004 0.0938 1.2505 0.3126 0.2501 0.1876 0.469 0.6253 0.594 1.2193l4.9396 20.9465 5.4086 -20.9465c0.1876 -0.6253 0.4064 -1.0317 0.6253 -1.2193 0.2501 -0.1876 0.6565 -0.3126 1.2192 -0.3126h2.9075c0.5003 0 0.7816 0.2501 0.7816 0.7816 0 0.1563 -0.0312 0.3126 -0.0625 0.5002s-0.0938 0.4377 -0.2188 0.7816l-7.5345 24.1666c-0.1876 0.6253 -0.4064 1.0317 -0.6566 1.2193 -0.2501 0.1875 -0.6565 0.3126 -1.188 0.3126h-2.6886c-0.594 0 -1.0004 -0.0938 -1.2506 -0.3126 -0.2501 -0.2189 -0.4689 -0.6253 -0.594 -1.2506L49.249 26.7407l-4.8146 20.1337c-0.1563 0.6252 -0.3439 1.0317 -0.594 1.2505 -0.2501 0.2188 -0.6878 0.3126 -1.2505 0.3126h-2.6886Zm40.1734 0.8442c-1.6257 0 -3.2514 -0.1876 -4.8145 -0.5628 -1.5632 -0.3752 -2.7825 -0.7816 -3.5953 -1.2505 -0.5002 -0.2814 -0.8441 -0.594 -0.9692 -0.8754 -0.125 -0.2814 -0.1876 -0.594 -0.1876 -0.8754v-1.5944c0 -0.6565 0.2501 -0.9692 0.7191 -0.9692 0.1876 0 0.3752 0.0313 0.5627 0.0938 0.1876 0.0625 0.469 0.1876 0.7816 0.3126 1.063 0.469 2.2197 0.8442 3.439 1.0943 1.2505 0.2501 2.4698 0.3751 3.7203 0.3751 1.9696 0 3.5015 -0.3439 4.5645 -1.0317 1.063 -0.6878 1.6257 -1.6882 1.6257 -2.97 0 -0.8754 -0.2814 -1.5944 -0.8441 -2.1884 -0.5628 -0.594 -1.6257 -1.1255 -3.1576 -1.6257l-4.5332 -1.4069c-2.2822 -0.719 -3.9705 -1.782 -5.0022 -3.1888 -1.0317 -1.3756 -1.5631 -2.9075 -1.5631 -4.5332 0 -1.3131 0.2813 -2.4699 0.8441 -3.4703 0.5627 -1.0004 1.313 -1.8758 2.2509 -2.5636 0.9379 -0.719 2.0009 -1.2505 3.2514 -1.6257 1.2506 -0.3751 2.5636 -0.5315 3.9392 -0.5315 0.6878 0 1.4069 0.0313 2.0947 0.1251 0.719 0.0938 1.3756 0.2188 2.0321 0.3439 0.6253 0.1563 1.2193 0.3126 1.782 0.5002 0.5628 0.1876 1.0004 0.3752 1.3131 0.5628 0.4377 0.2501 0.7503 0.5002 0.9379 0.7815 0.1876 0.2501 0.2814 0.594 0.2814 1.0317v1.4694c0 0.6565 -0.2502 1.0004 -0.7191 1.0004 -0.2501 0 -0.6565 -0.125 -1.188 -0.3751 -1.782 -0.8129 -3.7829 -1.2193 -6.0026 -1.2193 -1.782 0 -3.1889 0.2814 -4.158 0.8754 -0.9692 0.594 -1.4694 1.5006 -1.4694 2.7824 0 0.8754 0.3126 1.6257 0.9379 2.2197 0.6253 0.594 1.782 1.188 3.439 1.7195l4.4394 1.4069c2.2509 0.719 3.8766 1.7195 4.8458 3.0013 0.9692 1.2818 1.4381 2.7511 1.4381 4.3768 0 1.3444 -0.2813 2.5636 -0.8128 3.6266 -0.5628 1.0629 -1.3131 2.0008 -2.2823 2.7512 -0.9691 0.7816 -2.1259 1.3443 -3.4702 1.7507 -1.4068 0.4377 -2.8762 0.6566 -4.4707 0.6566Z" stroke-width="1"></path><path fill="#FF9900" d="M85.984 64.4753c-10.2857 7.597 -25.2296 11.63 -38.0789 11.63 -18.0077 0 -34.2334 -6.6592 -46.48867 -17.7264 -0.969162 -0.8754 -0.09379 -2.0634 1.06296 -1.3756C15.7351 64.6941 32.0858 69.3524 48.9994 69.3524c11.4111 0 23.9477 -2.3761 35.4839 -7.2532 1.7195 -0.7815 3.1889 1.1255 1.5007 2.3761Zm4.2831 -4.8771c-1.3131 -1.6883 -8.6913 -0.8129 -12.0365 -0.4065 -1.0004 0.1251 -1.1567 -0.7503 -0.2501 -1.4068 5.8776 -4.1268 15.538 -2.9388 16.6634 -1.5632 1.1255 1.4069 -0.3126 11.0673 -5.815 15.6943 -0.8441 0.719 -1.6569 0.3439 -1.2818 -0.5941 1.2506 -3.095 4.033 -10.0668 2.72 -11.7237Z" stroke-width="1"></path></svg>