<svg xmlns="http://www.w3.org/2000/svg" fill="none" viewBox="0 0 96 96" id="Django-Icon--Streamline-Svg-Logos"><desc>Django Icon Streamline Icon: https://streamlinehq.com</desc><path fill="#092e20" d="M84.7188 1H11.2812C5.60307 1 1 5.60307 1 11.2812v73.4376C1 90.3969 5.60307 95 11.2812 95h73.4376C90.3969 95 95 90.3969 95 84.7188V11.2812C95 5.60307 90.3969 1 84.7188 1Z" stroke-width="1"></path><path fill="#fffffd" d="M69.4353 35.5883V59.906c0 8.3788 -0.613 12.3975 -2.4521 15.8717 -1.7032 3.3384 -3.9514 5.4494 -8.5831 7.7657l-9.741 -4.6321c4.6321 -2.1796 6.8798 -4.0863 8.3102 -7.0165 1.4989 -2.997 1.9762 -6.4712 1.9762 -15.5988V35.5883h10.4898ZM52.7472 19.3884v48.5563c-5.3814 1.0217 -9.3324 1.4303 -13.6235 1.4303 -12.8066 0 -19.4821 -5.7896 -19.4821 -16.8933 0 -10.6946 7.0846 -17.6422 18.0513 -17.6422 1.7028 0 2.9969 0.1358 4.564 0.5445V19.3884h10.4903ZM38.715 43.2856c-5.3132 0 -8.3788 3.2698 -8.3788 8.9913 0 5.5862 2.9293 8.6512 8.3107 8.6512 1.1575 0 2.1115 -0.0681 3.61 -0.272V43.83c-1.2261 -0.4082 -2.2477 -0.5444 -3.5419 -0.5444Zm30.7203 -23.8414V30.207H58.9455V19.4442h10.4898Z" stroke-width="1"></path></svg>