<svg xmlns="http://www.w3.org/2000/svg" fill="none" viewBox="0 0 96 96" id="Git--Streamline-Svg-Logos"><desc>Git Streamline Icon: https://streamlinehq.com</desc><path fill="#2f2707" d="M57.335 41.7326c-2.061 0 -3.596 1.012 -3.596 3.4475 0 1.8351 1.0115 3.1092 3.485 3.1092 2.0963 0 3.5202 -1.2354 3.5202 -3.1849 0 -2.2096 -1.2741 -3.3718 -3.4092 -3.3718Zm-4.1207 17.1976c-0.4878 0.5983 -0.9737 1.2346 -0.9737 1.9848 0 1.4976 1.9095 1.9483 4.5327 1.9483 2.1729 0 5.1327 -0.1524 5.1327 -2.1725 0 -1.201 -1.4239 -1.275 -3.2232 -1.3878l-5.4685 -0.3728Zm11.0889 -17.0844c0.6733 0.8618 1.3861 2.061 1.3861 3.7842 0 4.1582 -3.2594 6.5928 -7.9785 6.5928 -1.2001 0 -2.2866 -0.1493 -2.9603 -0.3366l-1.2367 1.9853 3.671 0.2242c6.4818 0.4133 10.3017 0.601 10.3017 5.5814 0 4.3093 -3.7829 6.7431 -10.3017 6.7431 -6.7806 0 -9.3655 -1.7232 -9.3655 -4.6826 0 -1.686 0.7495 -2.5831 2.0606 -3.8215 -1.2367 -0.5226 -1.6482 -1.4589 -1.6482 -2.4709 0 -0.8247 0.4115 -1.5737 1.0869 -2.2861 0.6741 -0.7107 1.4231 -1.4235 2.3223 -2.2474 -1.8354 -0.8993 -3.2219 -2.8475 -3.2219 -5.6201 0 -4.3076 2.8474 -7.2661 8.5781 -7.2661 1.6112 0 2.5858 0.1481 3.4475 0.3745h7.3057v3.1832l-3.4471 0.2626Z" stroke-width="1"></path><path fill="#2f2707" d="M74.3404 35.0381c-2.1359 0 -3.3717 -1.2371 -3.3717 -3.3735 0 -2.1333 1.2358 -3.2956 3.3717 -3.2956 2.173 0 3.4092 1.1623 3.4092 3.2956 0 2.1364 -1.2362 3.3735 -3.4092 3.3735Zm-4.8336 22.5133v-2.9581l1.9113 -0.2613c0.5247 -0.0758 0.5992 -0.1877 0.5992 -0.7507V42.5672c0 -0.4111 -0.112 -0.6745 -0.4877 -0.786l-2.0228 -0.7124 0.412 -3.0334h7.7555v15.5459c0 0.6005 0.0362 0.6749 0.5996 0.7507l1.9108 0.2613v2.9581H69.5068Z" stroke-width="1"></path><path fill="#2f2707" d="M95.0003 56.0991c-1.6117 0.786 -3.9714 1.4979 -6.1078 1.4979 -4.4578 0 -6.143 -1.7963 -6.143 -6.0315v-9.8149c0 -0.2242 0 -0.3745 -0.3009 -0.3745h-2.6219v-3.3343c3.2977 -0.3753 4.608 -2.024 5.0199 -6.1073h3.5595v5.3213c0 0.2613 0 0.3745 0.3 0.3745h5.2817v3.7458h-5.5817v8.9531c0 2.2104 0.5251 3.0713 2.547 3.0713 1.0503 0 2.1355 -0.2617 3.0347 -0.5987l1.0125 3.2973Z" stroke-width="1"></path><path fill="#de4c36" d="M39.4918 46.2679 22.3626 29.14c-0.9858 -0.9866 -2.5858 -0.9866 -3.5728 0l-3.5569 3.5569 4.5121 4.512c1.0486 -0.3542 2.2508 -0.1166 3.0868 0.7193 0.8398 0.8412 1.0757 2.0538 0.7128 3.1058l4.3485 4.3485c1.052 -0.3625 2.2659 -0.1279 3.1062 0.7137 1.1743 1.1738 1.1743 3.0764 0 4.2511 -1.1747 1.1748 -3.0774 1.1748 -4.2525 0 -0.8833 -0.8841 -1.1015 -2.1815 -0.6543 -3.2697l-4.0553 -4.0553 -0.0005 10.6718c0.2863 0.1421 0.5566 0.3311 0.7951 0.5687 1.1743 1.1738 1.1743 3.0765 0 4.252 -1.1747 1.1743 -3.0782 1.1743 -4.2512 0 -1.1743 -1.1755 -1.1743 -3.0782 0 -4.252 0.2901 -0.2897 0.6259 -0.5088 0.984 -0.656V42.8354c-0.3581 -0.1463 -0.6934 -0.3641 -0.984 -0.656 -0.8898 -0.8884 -1.1037 -2.194 -0.6478 -3.2865l-4.4475 -4.4483L1.74028 46.1887c-0.987039 0.9875 -0.987039 2.5875 0 3.5741L18.8694 66.8911c0.9862 0.9866 2.5858 0.9866 3.5733 0l17.0491 -17.0487c0.9866 -0.987 0.9866 -2.5879 0 -3.5745Z" stroke-width="1"></path></svg>