<svg xmlns="http://www.w3.org/2000/svg" fill="none" viewBox="0 0 96 96" id="Mongodb--Streamline-Svg-Logos"><desc>Mongodb Streamline Icon: https://streamlinehq.com</desc><path fill="#01ec64" d="M8.28659 38.2322c-0.95471 -1.1328 -1.77683 -2.2832 -1.94479 -2.5221 -0.01768 -0.0177 -0.04421 -0.0177 -0.06188 0 -0.16797 0.2389 -0.99008 1.3893 -1.9448 2.5221 -8.19461 10.4512 1.29065 17.5043 1.29065 17.5043l0.07955 0.0531c0.07071 1.0884 0.24752 2.6548 0.24752 2.6548h0.70719s0.17681 -1.5575 0.24753 -2.6548l0.07955 -0.062c0.00883 0.0089 9.49409 -7.0442 1.29948 -17.4954Zm-1.98016 17.345s-0.42431 -0.3629 -0.53923 -0.5486v-0.0178l0.51272 -11.3804c0 -0.0354 0.05304 -0.0354 0.05304 0l0.51271 11.3804v0.0178c-0.11492 0.1857 -0.53924 0.5486 -0.53924 0.5486Z" stroke-width="1"></path><path fill="#001e2b" d="m24.0575 53.255 -3.9526 -9.6539 -0.0089 -0.0266h-3.0753v0.6489h0.4963c0.1507 0 0.2925 0.0622 0.3989 0.1689 0.1063 0.1066 0.1595 0.2489 0.1595 0.4l-0.0886 9.7161c0 0.3022 -0.2481 0.5511 -0.5495 0.56l-0.5052 0.0088v0.6401h2.9955v-0.6401l-0.3102 -0.0088c-0.3013 -0.0089 -0.5495 -0.2578 -0.5495 -0.56v-9.1561l4.3072 10.365c0.062 0.1511 0.2038 0.2489 0.3634 0.2489 0.1595 0 0.3013 -0.0978 0.3633 -0.2489l4.2096 -10.1339 0.0621 8.925c0 0.3111 -0.2482 0.56 -0.5583 0.5688h-0.3191v0.6401h3.5095v-0.6401h-0.4786c-0.3013 0 -0.5495 -0.2577 -0.5583 -0.56l-0.0266 -9.716c0 -0.3111 0.2481 -0.56 0.5495 -0.5689l0.514 -0.0089v-0.6489h-2.9955l-3.9526 9.6805Zm27.5598 1.6531c-0.0978 -0.0979 -0.1511 -0.2315 -0.1511 -0.3918v-4.7729c0 -0.9082 -0.2665 -1.6206 -0.7997 -2.1282 -0.5241 -0.5076 -1.2528 -0.7658 -2.159 -0.7658 -1.2707 0 -2.2747 0.5165 -2.9767 1.5316 -0.0089 0.0178 -0.0355 0.0268 -0.0621 0.0268 -0.0268 0 -0.0445 -0.0179 -0.0445 -0.0446l-0.3288 -1.2734h-0.5509l-1.4127 0.8103v0.4453h0.3643c0.1688 0 0.3109 0.0445 0.4087 0.1336 0.0977 0.0891 0.151 0.2226 0.151 0.4096v5.6188c0 0.1603 -0.0533 0.2939 -0.151 0.3919 -0.0978 0.0978 -0.231 0.1513 -0.3909 0.1513h-0.3555v0.65h3.252v-0.65h-0.3554c-0.1599 0 -0.2932 -0.0535 -0.3909 -0.1513 -0.0977 -0.098 -0.1511 -0.2316 -0.1511 -0.3919v-3.7221c0 -0.472 0.1067 -0.9439 0.3022 -1.407 0.2043 -0.4541 0.5064 -0.837 0.9063 -1.1308 0.3998 -0.2939 0.8796 -0.4364 1.4305 -0.4364 0.622 0 1.0929 0.1959 1.3861 0.5877 0.2932 0.3919 0.4443 0.8994 0.4443 1.5049v4.5949c0 0.1602 -0.0533 0.2937 -0.1511 0.3917 -0.0977 0.098 -0.231 0.1514 -0.3909 0.1514h-0.3554v0.65h3.252v-0.65h-0.3553c-0.1333 0.0178 -0.2578 -0.0356 -0.3644 -0.1336Zm29.7116 -10.6068c-0.899 -0.4786 -1.9037 -0.7268 -2.9877 -0.7268H74.111v0.647h0.4143c0.1586 0 0.2996 0.0621 0.4406 0.2039 0.1322 0.133 0.2027 0.2837 0.2027 0.4432v9.5379c0 0.1595 -0.0705 0.3102 -0.2027 0.4432 -0.1322 0.1329 -0.282 0.2038 -0.4406 0.2038h-0.4143v0.6471h4.2302c1.084 0 2.0887 -0.2481 2.9877 -0.7268 0.8988 -0.4787 1.6304 -1.1879 2.1591 -2.0919 0.5288 -0.9042 0.802 -1.9945 0.802 -3.2355 0 -1.2409 -0.2732 -2.3224 -0.802 -3.2354 -0.5376 -0.9218 -1.2603 -1.6221 -2.1591 -2.1097Zm1.2602 5.3274c0 1.1346 -0.2027 2.0919 -0.5993 2.8631 -0.3966 0.7712 -0.9254 1.3473 -1.5776 1.7197 -0.652 0.3723 -1.3747 0.5584 -2.1503 0.5584h-0.8548c-0.1587 0 -0.2997 -0.062 -0.4407 -0.2039 -0.1322 -0.1329 -0.2026 -0.2836 -0.2026 -0.4432v-8.9971c0 -0.1596 0.0616 -0.3014 0.2026 -0.4432 0.1322 -0.133 0.282 -0.2039 0.4407 -0.2039h0.8548c0.7756 0 1.4983 0.1862 2.1503 0.5584 0.6522 0.3723 1.181 0.9485 1.5776 1.7197 0.3966 0.78 0.5993 1.7462 0.5993 2.872Zm11.7001 0.6471c-0.3912 -0.4521 -1.1463 -0.8332 -2.034 -1.0372 1.2259 -0.6116 1.8561 -1.4714 1.8561 -2.5794 0 -0.6028 -0.1594 -1.1435 -0.4798 -1.6045 -0.3195 -0.4608 -0.7727 -0.8332 -1.3498 -1.0902 -0.578 -0.2571 -1.2533 -0.39 -2.0172 -0.39h-4.7883v0.647h0.382c0.1599 0 0.302 0.0621 0.4442 0.2039 0.1333 0.133 0.2043 0.2837 0.2043 0.4432v9.5379c0 0.1595 -0.071 0.3102 -0.2043 0.4432 -0.1332 0.1329 -0.2843 0.2038 -0.4442 0.2038h-0.4176v0.6471h5.1974c0.7905 0 1.5278 -0.1329 2.1943 -0.3989 0.6665 -0.2659 1.1993 -0.6559 1.5817 -1.17 0.3903 -0.5141 0.5859 -1.1435 0.5859 -1.8704 -0.0088 -0.78 -0.2398 -1.4449 -0.7107 -1.9855Zm-5.9612 4.2991c-0.1333 -0.133 -0.2044 -0.2836 -0.2044 -0.4432v-4.2815h2.4702c0.8701 0 1.5366 0.2217 1.9986 0.6649 0.462 0.4432 0.693 1.0194 0.693 1.7285 0 0.4255 -0.1071 0.8421 -0.3018 1.2233 -0.2044 0.39 -0.5072 0.7003 -0.9152 0.9396 -0.4001 0.2393 -0.8975 0.3634 -1.4746 0.3634h-1.8217c-0.1598 0 -0.302 -0.062 -0.4441 -0.195Zm-0.1955 -5.6377v-3.8026c0 -0.1596 0.0622 -0.3014 0.2043 -0.4433 0.1333 -0.1329 0.2843 -0.2038 0.4443 -0.2038h1.1727c0.8436 0 1.4658 0.2127 1.857 0.6204 0.3904 0.4167 0.586 0.9485 0.586 1.6045 0 0.6737 -0.1868 1.2144 -0.5506 1.6221 -0.3646 0.3989 -0.9152 0.6027 -1.6436 0.6027h-2.0701Zm-48.8954 -1.5224c-0.6789 -0.371 -1.4371 -0.5654 -2.2569 -0.5654 -0.7984 0 -1.5466 0.1759 -2.2039 0.5358l-0.0531 0.0296c-0.6789 0.371 -1.2167 0.9098 -1.6134 1.5901 -0.3967 0.6802 -0.5995 1.4753 -0.5995 2.3586 0 0.8834 0.2028 1.6785 0.5995 2.3587 0.3967 0.6802 0.9345 1.2191 1.6134 1.5901s1.4371 0.5654 2.257 0.5654c0.7983 0 1.5465 -0.1759 2.2038 -0.5358l0.0531 -0.0296c0.6789 -0.371 1.2167 -0.9099 1.6134 -1.5901 0.3967 -0.6802 0.5995 -1.4753 0.5995 -2.3587 0 -0.8833 -0.2028 -1.6784 -0.5995 -2.3586 -0.3967 -0.6803 -0.9345 -1.2191 -1.6134 -1.5901Zm0.6525 3.9487c0 1.0866 -0.2645 1.97 -0.7936 2.606 -0.5201 0.6361 -1.2342 0.9629 -2.1158 0.9629 -0.8659 0 -1.5703 -0.3153 -2.0879 -0.9291l-0.028 -0.0338c-0.5291 -0.636 -0.7935 -1.5194 -0.7935 -2.606 0 -1.0668 0.2549 -1.9377 0.7649 -2.571l0.0286 -0.0349c0.5201 -0.6361 1.2343 -0.963 2.1159 -0.963 0.8816 0 1.5957 0.3269 2.1158 0.963 0.5291 0.636 0.7936 1.5194 0.7936 2.6059Zm30.5924 -3.9487c-0.6789 -0.371 -1.4371 -0.5654 -2.257 -0.5654 -0.7983 0 -1.5466 0.1759 -2.2039 0.5358l-0.0531 0.0296c-0.6789 0.371 -1.2167 0.9098 -1.6134 1.5901 -0.3967 0.6802 -0.5995 1.4753 -0.5995 2.3586 0 0.8834 0.2028 1.6785 0.5995 2.3587 0.3967 0.6802 0.9345 1.2191 1.6134 1.5901s1.4371 0.5654 2.257 0.5654c0.7983 0 1.5465 -0.1759 2.2039 -0.5358l0.0531 -0.0296c0.6788 -0.371 1.2166 -0.9099 1.6134 -1.5901 0.3967 -0.6802 0.5994 -1.4753 0.5994 -2.3587 0 -0.8833 -0.2027 -1.6784 -0.5994 -2.3586 -0.3968 -0.6803 -0.9434 -1.2191 -1.6134 -1.5901Zm0.6524 3.9487c0 1.0866 -0.2646 1.97 -0.7935 2.606 -0.5202 0.6361 -1.2343 0.9629 -2.1159 0.9629 -0.866 0 -1.5703 -0.3153 -2.0879 -0.9291l-0.028 -0.0338c-0.529 -0.636 -0.7935 -1.5194 -0.7935 -2.606 0 -1.0755 0.2549 -1.938 0.7649 -2.571l0.0286 -0.0349c0.5201 -0.6361 1.2342 -0.963 2.1159 -0.963 0.8816 0 1.5957 0.3269 2.1159 0.963 0.5201 0.636 0.7935 1.5194 0.7935 2.6059Zm-13.253 -4.5141c-0.7104 0 -1.3584 0.1508 -1.9445 0.4526 -0.586 0.3017 -1.0477 0.71 -1.3763 1.2336 -0.3284 0.5147 -0.4971 1.0916 -0.4971 1.7039 0 0.5502 0.1242 1.0561 0.3817 1.5087 0.2486 0.4349 0.5861 0.7987 1.0122 1.1004l-1.2697 1.7217c-0.1598 0.213 -0.1775 0.4969 -0.0621 0.7277 0.1243 0.2396 0.3551 0.3817 0.6215 0.3817h0.3641c-0.3404 0.2296 -0.6155 0.4999 -0.8098 0.8189l-0.0249 0.0418c-0.2308 0.3816 -0.3462 0.781 -0.3462 1.1892 0 0.7496 0.3254 1.3708 0.9679 1.8384l0.0353 0.0253c0.6571 0.4704 1.5805 0.71 2.7436 0.71 0.8081 0 1.5805 -0.1331 2.282 -0.3905 0.69 -0.25 1.2543 -0.6173 1.6767 -1.0936l0.0369 -0.0423c0.4351 -0.497 0.6571 -1.1005 0.6571 -1.7927 0 -0.7277 -0.2664 -1.2425 -0.888 -1.7394 -0.5326 -0.4172 -1.3673 -0.639 -2.4062 -0.639h-3.5515c-0.0053 0 -0.0107 -0.0032 -0.0141 -0.0058l-0.0037 -0.0031 -0.0016 -0.0037c-0.002 -0.0057 -0.0047 -0.0165 0.0016 -0.0229l0.9234 -1.2424c0.2487 0.1153 0.4795 0.1863 0.6837 0.2307 0.2131 0.0444 0.4528 0.0621 0.7192 0.0621 0.7459 0 1.4207 -0.1508 2.0066 -0.4526 0.5861 -0.3017 1.0567 -0.7099 1.3941 -1.2336 0.3373 -0.5147 0.506 -1.0915 0.506 -1.7038 0 -0.6568 -0.3196 -1.8549 -1.1898 -2.4672 0 -0.0053 0.0033 -0.0075 0.0058 -0.0083l0.0032 -0.0006 1.9089 0.213v-0.8786H59.373c-0.4794 -0.1508 -0.9766 -0.2396 -1.4916 -0.2396Zm1.0655 5.5555c-0.3375 0.1775 -0.7015 0.2751 -1.0655 0.2751 -0.5949 0 -1.1188 -0.213 -1.5627 -0.63 -0.4439 -0.4172 -0.6659 -1.0295 -0.6659 -1.8105 0 -0.7809 0.222 -1.3933 0.6659 -1.8104 0.4439 -0.4171 0.9678 -0.6301 1.5627 -0.6301 0.3574 0 0.6984 0.0815 1.0232 0.2523l0.0423 0.0228c0.3374 0.1775 0.6126 0.4526 0.8346 0.8165 0.2131 0.3639 0.3285 0.8164 0.3285 1.3489 0 0.5414 -0.1066 0.9939 -0.3285 1.349 -0.2131 0.3638 -0.4972 0.6389 -0.8346 0.8164Zm-2.4062 3.2658h2.4062c0.6659 0 1.0921 0.1331 1.3762 0.4172 0.2842 0.2839 0.4262 0.6655 0.4262 1.1093 0 0.6478 -0.2575 1.1803 -0.7724 1.5797 -0.5151 0.3994 -1.2076 0.6035 -2.06 0.6035 -0.7459 0 -1.3674 -0.1687 -1.8202 -0.4882 -0.4529 -0.3194 -0.6837 -0.8076 -0.6837 -1.4287 0 -0.3906 0.1066 -0.7544 0.3197 -1.0739 0.2131 -0.3195 0.4705 -0.5503 0.808 -0.7189Z" stroke-width="1"></path></svg>