<svg xmlns="http://www.w3.org/2000/svg" fill="none" viewBox="0 0 96 96" id="Opencv--Streamline-Svg-Logos"><desc>Opencv Streamline Icon: https://streamlinehq.com</desc><path fill="#ff0101" d="M38.7054 34.0952c-6.9518 -4.0136 -10.3411 -12.1961 -8.2635 -19.9498C32.5195 6.3916 39.546 1 47.5732 1c8.0273 0 15.0538 5.3916 17.1314 13.1454 2.0776 7.7537 -1.3117 15.9362 -8.2635 19.9498l-5.34 -9.249c2.7657 -1.5968 4.114 -4.852 3.2875 -7.9367 -0.8265 -3.0847 -3.6219 -5.2296 -6.8154 -5.2296 -3.1935 0 -5.9888 2.1449 -6.8153 5.2296 -0.8266 3.0847 0.5218 6.3399 3.2874 7.9367l-5.3399 9.249Z" stroke-width="1"></path><path fill="#0101ff" d="M76.6848 38.3886c6.9518 4.0137 10.3411 12.1962 8.2635 19.9499 -2.0776 7.7538 -9.1041 13.1454 -17.1314 13.1454 -8.0273 0 -15.0537 -5.3916 -17.1313 -13.1454 -2.0777 -7.7537 1.3116 -15.9362 8.2635 -19.9499l5.3399 9.2491c-2.7656 1.5968 -4.114 4.852 -3.2875 7.9367 0.8266 3.0846 3.6219 5.2296 6.8154 5.2296 3.1935 0 5.9888 -2.145 6.8154 -5.2296 0.8265 -3.0847 -0.5219 -6.3399 -3.2875 -7.9367l5.34 -9.2491Z" stroke-width="1"></path><path fill="#01ff01" d="M45.4474 53.7483c0 8.0273 -5.3916 15.0538 -13.1454 17.1314 -7.7537 2.0776 -15.9362 -1.3117 -19.9499 -8.2635 -4.0136 -6.9519 -2.85758 -15.7328 2.8186 -21.4089 5.6761 -5.6762 14.457 -6.8322 21.4088 -2.8185l-5.3399 9.249c-2.7657 -1.5967 -6.259 -1.1368 -8.5171 1.1213 -2.2581 2.2582 -2.718 5.7515 -1.1213 8.5171 1.5967 2.7656 4.852 4.114 7.9367 3.2875 3.0846 -0.8266 5.2296 -3.6219 5.2296 -6.8154h10.6799Z" stroke-width="1"></path><path fill="#050505" d="M15.0412 75.737c1.501 -0.1349 3.0187 -0.1336 4.5122 0.0803 0.9205 0.1629 1.897 0.401 2.5884 1.072 0.7244 0.8085 0.9026 1.9314 1.0618 2.9665 0.261 2.1479 0.2304 4.3263 0 6.4755 -0.1541 1.0491 -0.3056 2.1822 -0.9931 3.0353 -0.7499 0.7614 -1.8576 0.9778 -2.8736 1.1382 -1.4998 0.1872 -3.0213 0.2305 -4.5275 0.0802 -1.0198 -0.1044 -2.0842 -0.2839 -2.9525 -0.8657 -0.5615 -0.3565 -0.8632 -0.9855 -1.0682 -1.5954 -0.4113 -1.2706 -0.4635 -2.6202 -0.5195 -3.9443 -0.0063 -1.7494 0.0268 -3.5166 0.368 -5.2379 0.1846 -0.8034 0.4087 -1.687 1.0873 -2.223 0.9562 -0.6939 2.1721 -0.862 3.3167 -0.9817Zm0.2482 2.3975c-0.6315 0.0955 -1.4183 0.1477 -1.799 0.7359 -0.3323 0.8772 -0.3208 1.8346 -0.3883 2.7577 -0.0319 1.6463 -0.1146 3.3078 0.14 4.9413 0.0942 0.5513 0.2878 1.2082 0.9002 1.3699 1.3279 0.4062 2.7488 0.3374 4.1175 0.2598 0.6824 -0.1044 1.5877 -0.163 1.92 -0.8773 0.3806 -1.0873 0.3539 -2.2612 0.401 -3.3968 -0.0153 -1.5966 0.0739 -3.2238 -0.3081 -4.786 -0.0917 -0.5551 -0.6671 -0.7919 -1.1548 -0.8899 -1.2579 -0.247 -2.5566 -0.2165 -3.8285 -0.1146Zm13.4118 2.5782c0.9117 -0.5793 2.0435 -0.6735 3.0952 -0.578 0.9816 0.084 2.0715 0.4176 2.5973 1.3215 0.6277 1.1344 0.6633 2.4751 0.7066 3.7407 -0.028 1.3012 -0.0522 2.6597 -0.5895 3.8692 -0.3068 0.7346 -1.0122 1.2159 -1.7672 1.4056 -1.156 0.2839 -2.4267 0.3145 -3.5407 -0.1464 -0.6022 -0.2355 -1.0186 -0.7474 -1.3636 -1.2719v5.9471h-2.5464c0.0013 -4.9222 -0.0025 -9.8456 0.0013 -14.7678 0.8237 -0.0038 1.6475 -0.0038 2.47 0 -0.028 0.5067 -0.056 1.0122 -0.07 1.5202 0.3055 -0.3731 0.5894 -0.783 1.007 -1.0402Zm0.8289 1.3292c-0.606 0.0471 -1.2656 0.3476 -1.4374 0.9816 -0.3247 1.1179 -0.2674 2.302 -0.2203 3.4529 0.0789 0.75 0.1719 1.7163 0.9702 2.0524 0.8581 0.3323 1.8486 0.3145 2.717 0.0306 0.7512 -0.2648 0.8606 -1.1484 0.9396 -1.8309 0.0789 -1.1306 0.1069 -2.2841 -0.1146 -3.4007 -0.0751 -0.4329 -0.2979 -0.8798 -0.7206 -1.0618 -0.6672 -0.2941 -1.4209 -0.2788 -2.1339 -0.2241Zm8.617 -1.3101c1.2515 -0.643 2.717 -0.6659 4.0907 -0.601 1.1434 0.0955 2.5311 0.2865 3.1614 1.3802 0.7104 1.3203 0.5946 2.8736 0.6939 4.3225h-6.9657c0.0815 0.7473 -0.0153 1.5533 0.3616 2.2383 0.3221 0.5411 1.0058 0.6518 1.5839 0.6837 0.7142 0.005 1.4832 0.0636 2.1415 -0.2687 0.3768 -0.2954 0.3794 -0.8199 0.4278 -1.2528 0.8148 -0.0013 1.6297 -0.0013 2.4445 0 -0.0306 0.8505 -0.14 1.8028 -0.8225 2.4012 -1.0249 0.9193 -2.4916 1.0148 -3.803 1.0402 -1.1573 -0.0343 -2.3796 -0.0929 -3.416 -0.6633 -0.839 -0.4953 -1.1064 -1.5126 -1.2541 -2.4089 -0.1871 -1.3318 -0.2342 -2.689 -0.0751 -4.0258 0.1299 -1.0555 0.4138 -2.2969 1.4311 -2.8456Zm1.4883 1.6208c-0.5322 0.485 -0.48 1.2897 -0.5029 1.9492 1.4973 0.0077 2.9946 0.0038 4.4931 0.0013 -0.0025 -0.5933 0.0548 -1.2401 -0.2661 -1.7685 -0.3145 -0.4278 -0.9039 -0.4558 -1.3878 -0.508 -0.7804 -0.0114 -1.6411 -0.0967 -2.3363 0.326Zm11.8802 -1.6272c0.8811 -0.6111 2.0193 -0.6964 3.0557 -0.5767 0.8823 0.0929 1.8168 0.429 2.3375 1.1904 0.4622 0.6315 0.5908 1.4362 0.5972 2.2013 -0.0038 2.3351 0.0013 4.6689 -0.0013 7.0039 -0.8072 0.0013 -1.6131 0.0013 -2.4178 0 -0.0038 -2.209 0.0026 -4.4167 -0.0038 -6.6244 -0.0242 -0.4826 -0.0051 -1.0402 -0.368 -1.412 -0.387 -0.4189 -0.9943 -0.5004 -1.5354 -0.4966 -0.6545 -0.0038 -1.3624 0.1083 -1.8665 0.5603 -0.4928 0.4201 -0.6799 1.0974 -0.6825 1.7239 -0.0038 2.0829 0.0013 4.1658 -0.0025 6.2475 -0.8059 0.0026 -1.6119 0.0026 -2.4165 0.0013 -0.0013 -3.4376 -0.0013 -6.8753 0 -10.3129 0.7919 -0.0025 1.5851 -0.0013 2.377 0 -0.0038 0.6035 -0.0636 1.2032 -0.0815 1.8067 0.2598 -0.4877 0.5322 -1.002 1.0084 -1.3127Zm10.3676 -4.5173c1.3343 -0.4481 2.7565 -0.5118 4.1519 -0.5615 1.3521 0.0064 2.7654 0.0191 4.0284 0.5641 0.6417 0.2673 1.086 0.853 1.3025 1.4998 0.3526 0.9663 0.3628 2.0129 0.3705 3.0302 -0.9307 0 -1.8614 0.0025 -2.7909 -0.0013 -0.0153 -0.7155 0.0395 -1.5176 -0.4036 -2.1262 -0.4481 -0.4584 -1.1484 -0.4571 -1.743 -0.5271 -1.2095 -0.0229 -2.4687 -0.1006 -3.6273 0.317 -0.4176 0.1324 -0.6341 0.55 -0.7181 0.9524 -0.2381 1.0796 -0.2394 2.1937 -0.2381 3.295 0.014 1.4718 -0.0089 2.9653 0.3056 4.4129 0.0827 0.5296 0.5704 0.8556 1.0593 0.9727 1.1306 0.2814 2.3108 0.2406 3.4656 0.1719 0.6022 -0.079 1.3356 -0.1184 1.7137 -0.671 0.4036 -0.6595 0.3362 -1.4705 0.3145 -2.2115 0.9396 -0.0039 1.878 -0.0026 2.8176 0 -0.0115 1.17 -0.0318 2.3783 -0.4571 3.486 -0.219 0.5793 -0.671 1.0707 -1.2566 1.2923 -1.1497 0.4609 -2.4102 0.4901 -3.6299 0.564 -1.4145 0.0242 -2.8469 -0.0102 -4.2296 -0.3399 -0.811 -0.2114 -1.6971 -0.5832 -2.0727 -1.3891 -0.48 -1.0657 -0.5679 -2.251 -0.6914 -3.3982 -0.1031 -1.5151 -0.1693 -3.0327 -0.1324 -4.5504 0.0726 -1.2286 0.1846 -2.5234 0.848 -3.5942 0.3527 -0.5958 0.9714 -0.9689 1.6131 -1.1879Zm10.4669 -0.429c0.9702 0.0012 1.9404 -0.0268 2.9093 0.014 0.9434 2.9932 1.9798 5.956 2.9322 8.9454 0.3705 1.1484 0.6327 2.33 1.016 3.4746 0.429 -1.235 0.704 -2.5184 1.1242 -3.756 0.9307 -2.8914 1.8869 -5.7739 2.8163 -8.6653 0.9574 -0.0407 1.9174 -0.0051 2.8761 -0.0178v0.317c-1.5762 4.8038 -3.1155 9.6202 -4.6598 14.4355 -1.4413 0.0292 -2.8851 0.0331 -4.3264 -0.0026 -1.5354 -4.9234 -3.1448 -9.8239 -4.6879 -14.7448Z" stroke-width="1"></path></svg>