<svg xmlns="http://www.w3.org/2000/svg" fill="none" viewBox="0 0 96 96" id="Pytorch--Streamline-Svg-Logos"><desc>Pytorch Streamline Icon: https://streamlinehq.com</desc><path fill="#ee4c2c" d="M8.06013 36.7251v2.4884l-3.82342 3.8233c-2.00102 2.0295 -2.00082 5.2942 0.00061 7.3605l0.06126 0.0623c2.04474 2.0833 5.40119 2.0833 7.48452 0 2.0625 -2.0243 2.0831 -5.3342 0.0619 -7.4217l-0.0619 -0.0629 1.2731 -1.2731c2.7778 2.7778 2.7778 7.2337 0 10.0308 -2.7199 2.7777 -7.19513 2.7777 -9.97288 0 -2.749981 -2.75 -2.777481 -7.1637 -0.0825 -9.947l0.0825 -0.0838 4.97681 -4.9768Zm2.50767 2.8163c0.5114 0 0.9259 0.4146 0.9259 0.926 0 0.5113 -0.4145 0.9259 -0.9259 0.9259 -0.5113 0 -0.9259 -0.4146 -0.9259 -0.9259 0 -0.5114 0.4146 -0.926 0.9259 -0.926Z" stroke-width="1"></path><path fill="#000000" d="M25.9227 48.0676h-2.1412v5.4977h-1.6204V37.9211h3.9352c4.0677 0 6.0368 1.9852 6.0757 4.7763l0.0006 0.0848c0.0579 3.4915 -2.3726 5.2854 -6.2499 5.2854Zm0.2609 -8.5836 -2.3442 -0.0004v7.1952l2.199 -0.0579c0.1771 -0.0035 0.3494 -0.0109 0.5168 -0.0223l0.1658 -0.0128 0.1626 -0.0154 0.1593 -0.0181c2.3124 -0.2854 3.5672 -1.4383 3.5672 -3.5772 0 -2.2532 -1.5877 -3.4668 -4.4265 -3.4911Zm8.9597 2.6616 3.5879 9.4521 3.5301 -9.4521h1.6203l-4.4559 11.3618 -0.926 2.4884 -0.0703 0.1843 -0.0705 0.1784 -0.0708 0.1726 -0.071 0.1669 -0.0713 0.1613c-0.0238 0.0528 -0.0476 0.1047 -0.0716 0.1556l-0.0719 0.1502c-0.1443 0.2949 -0.2907 0.5574 -0.4404 0.7903l-0.0751 0.1139c-0.6784 1.0037 -1.4251 1.4172 -2.3305 1.4989l-0.1012 0.0077c-0.0849 0.0053 -0.1713 0.0079 -0.259 0.0079 -0.7639 0 -1.3485 -0.1793 -1.9511 -0.4195l-0.1649 -0.0669c-0.0276 -0.0114 -0.0553 -0.0229 -0.0831 -0.0345l0.463 -1.4467c0.5208 0.2893 1.0995 0.5208 1.7361 0.5208l0.0341 -0.0002 0.0676 -0.002c0.0112 -0.0005 0.0223 -0.0011 0.0335 -0.0018l0.0663 -0.0053c0.1317 -0.0128 0.2586 -0.0396 0.3824 -0.0855l0.0617 -0.0246c0.041 -0.0174 0.0816 -0.0371 0.1221 -0.0592l0.0604 -0.0349c0.1005 -0.0613 0.1998 -0.1381 0.2988 -0.2334l0.0594 -0.0595c0.1584 -0.1644 0.3168 -0.3776 0.4795 -0.6515l0.0612 -0.1055c0.0205 -0.0361 0.041 -0.0733 0.0617 -0.1114l0.0621 -0.1173 0.0628 -0.1234c0.0105 -0.0211 0.021 -0.0425 0.0316 -0.0641l0.0637 -0.1328 0.0643 -0.1393c0.0216 -0.0475 0.0433 -0.0961 0.0651 -0.1459l0.0659 -0.1526c0.011 -0.026 0.0221 -0.0523 0.0332 -0.0788l0.0672 -0.163 0.068 -0.17 0.7523 -2.0255 -4.4559 -11.3039h1.6782Zm24.2282 -0.3279c3.2407 0 5.4976 2.3727 5.4976 6.0185 -0.0578 3.6458 -2.4884 6.0763 -5.6712 6.0763 -3.1829 0 -5.4977 -2.3727 -5.4977 -6.0185 0 -3.6458 2.4306 -6.0763 5.6713 -6.0763Zm-4.7453 -3.8387v1.5046h-5.4591v14.1396h-1.6204V39.4836h-5.4976V37.979h12.5771Zm4.6295 5.2854c-2.4305 0 -3.993 1.9097 -3.993 4.6296 0 2.7778 1.6204 4.6875 4.0509 4.6875 2.4305 0 3.993 -1.9097 3.993 -4.6296 0 -2.8356 -1.6203 -4.6875 -4.0509 -4.6875Zm9.4907 10.3588h-1.5625V42.1456l1.5625 -0.3472v2.4305c0.7523 -1.4467 1.8518 -2.4305 3.3565 -2.4305 0.7523 0 1.4467 0.2315 2.0254 0.5208l-0.4051 1.4468c-0.5208 -0.2894 -1.0995 -0.5208 -1.7361 -0.5208 -1.2152 0 -2.3148 0.9259 -3.2407 2.9513v7.4267Zm11.4775 0.2893c-3.4722 0 -5.6133 -2.4884 -5.6133 -6.0185 0 -3.5879 2.3726 -6.0763 5.6133 -6.0763 1.3889 0 2.6042 0.3472 3.588 0.9838l-0.4051 1.3889c-0.8681 -0.5787 -1.9676 -0.926 -3.1829 -0.926 -2.4884 0 -3.993 1.8519 -3.993 4.5718 0 2.7777 1.6204 4.6296 4.0509 4.6296 1.1574 0 2.3148 -0.3473 3.1828 -0.926l0.3473 1.4468c-1.0417 0.5787 -2.257 0.9259 -3.588 0.9259Zm13.1558 -0.2701v-7.4459c0 -2.0254 -0.8102 -2.8935 -2.4305 -2.8935 -1.331 0 -2.6042 0.6945 -3.5301 1.6204v8.6998h-1.5625V36.7637l1.5625 -0.3472v7.253c1.2153 -1.2152 2.7199 -1.7939 3.993 -1.7939 2.1991 0 3.5879 1.4467 3.5879 3.9351v7.8317h-1.6203Z" stroke-width="1"></path></svg>