<svg xmlns="http://www.w3.org/2000/svg" fill="none" viewBox="0 0 96 96" id="Tensorflow--Streamline-Svg-Logos"><desc>Tensorflow Streamline Icon: https://streamlinehq.com</desc><path fill="#e55b2d" d="M54.2617 15.46v14.4622L79.309 44.3844V29.9222L54.2617 15.46ZM4.16553 29.9222v14.4622L16.6892 51.614V37.1533L4.16553 29.9222Zm37.57097 7.2311 -12.5236 7.2311v43.3837l12.5236 7.2311V66.0763l12.5252 7.2311V58.8452L41.7365 51.614V37.1533Z" stroke-width="1"></path><path fill="#ed8e24" d="M54.2615 15.46 16.689 37.1533V51.614l25.0473 -14.4607V51.614l12.5252 -7.2296V15.46Zm37.5725 7.2311 -12.5252 7.2311v14.4622l12.5252 -7.2311V22.6911ZM66.7851 51.614l-12.5236 7.2312v14.4622l12.5236 -7.2311V51.614ZM54.2615 73.3074l-12.5252 -7.2311v28.9229l12.5252 -7.2311V73.3074Z" stroke-width="1"></path><path fill="#f8bf3c" d="M54.2617 1 4.16553 29.923l12.52367 7.2311 37.5725 -21.6934L79.309 29.923l12.5252 -7.2311L54.2617 1Zm0 43.3852 -12.5252 7.2296 12.5252 7.2311 12.5237 -7.2311 -12.5237 -7.2296Z" stroke-width="1"></path></svg>